<?xml version="1.0" standalone="no"?>
<!DOCTYPE svg PUBLIC "-//W3C//DTD SVG 20010904//EN"
 "http://www.w3.org/TR/2001/REC-SVG-20010904/DTD/svg10.dtd">
<svg version="1.0" xmlns="http://www.w3.org/2000/svg"
 width="64.000000pt" height="64.000000pt" viewBox="0 0 64.000000 64.000000"
 preserveAspectRatio="xMidYMid meet">

<g transform="translate(0.000000,64.000000) scale(0.100000,-0.100000)"
fill="#FF5A5A" stroke="none">
<path d="M20 345 l0 -194 118 -3 117 -3 3 -38 c3 -34 1 -37 -22 -37 -14 0 -26
-4 -26 -10 0 -6 43 -10 110 -10 67 0 110 4 110 10 0 6 -12 10 -26 10 -23 0
-25 3 -22 37 l3 38 118 3 117 3 0 194 0 195 -300 0 -300 0 0 -195z m580 0 l0
-175 -280 0 -280 0 0 175 0 175 280 0 280 0 0 -175z m-240 -235 l0 -40 -40 0
-40 0 0 40 0 40 40 0 40 0 0 -40z"/>
<path d="M60 345 l0 -155 30 0 c17 0 30 5 30 10 0 6 -9 10 -20 10 -19 0 -20 7
-20 135 l0 135 240 0 240 0 0 -135 0 -135 -210 0 c-133 0 -210 -4 -210 -10 0
-6 80 -10 220 -10 l220 0 0 155 0 155 -260 0 -260 0 0 -155z"/>
<path d="M278 429 c-15 -8 -18 -24 -18 -89 0 -43 5 -82 10 -85 6 -4 10 10 10
34 l0 41 40 0 40 0 0 -41 c0 -24 4 -38 10 -34 6 3 10 42 10 85 0 68 -3 81 -19
90 -25 13 -61 12 -83 -1z m77 -44 c0 -28 -3 -30 -35 -30 -26 0 -36 5 -38 18
-7 34 6 48 40 45 29 -3 33 -6 33 -33z"/>
<path d="M407 433 c-11 -10 -8 -171 3 -178 6 -4 10 10 10 34 0 57 31 57 60 1
12 -23 25 -38 31 -35 6 4 1 20 -11 40 l-21 34 21 11 c27 15 28 75 1 90 -22 11
-84 14 -94 3z m88 -48 c0 -28 -3 -30 -35 -30 -32 0 -35 3 -38 33 -3 33 -3 33
35 30 35 -3 38 -5 38 -33z"/>
<path d="M124 418 c3 -7 14 -46 26 -85 11 -40 25 -73 30 -73 5 0 19 30 30 68
11 37 23 75 26 85 3 9 1 17 -5 17 -6 0 -19 -28 -30 -62 -20 -66 -22 -65 -44
11 -7 25 -18 46 -25 49 -7 2 -10 -2 -8 -10z"/>
</g>
</svg>
