<svg xmlns="http://www.w3.org/2000/svg" viewBox="0 0 32 32" width="20" height="20"><path fill="#333" d="M16 0C7.2 0 0 7.2 0 16s7.2 16 16 16 16-7.2 16-16S24.8 0 16 0zm0 2.5c.7 0 1.4.1 2.2.2L16 4.2l-2.2-1.5c.7-.2 1.5-.2 2.2-.2zm-5.2 1 4.4 3.2.8.6.7-.5 4.4-3.2c2 .8 3.7 2.1 5.1 3.7l-1.7 5.3-.3.8.7.5 4.5 3.3c-.2 2.2-.8 4.2-1.9 6h-6.4l-.3.8-1.7 5.3c-1 .2-2 .3-3.1.3s-2.2-.1-3.2-.4l-1.7-5.3-.3-.9H4.4c-1.1-1.8-1.7-3.8-1.9-6L7 13.8l.7-.5-.3-.8-1.7-5.3c1.4-1.6 3.1-2.9 5.1-3.7zM16 8.7l-.7.5-5.6 4.1-.7.6.3.8 2.2 6.6.3.8h8.7l.3-.8 2.2-6.6.3-.8-.7-.5L17 9.3l-1-.6zm12 1c.7 1.3 1.1 2.7 1.3 4.2l-2.2-1.6.9-2.6zM4 9.8l.8 2.5-2.2 1.6c.3-1.4.7-2.8 1.4-4.1zm12 2 4.2 3-1.6 4.9h-5.2l-1.6-4.9 4.2-3zm6.9 13.7h2.8c-1 1.1-2.3 2-3.6 2.7l.8-2.7zm-16.6 0H9l.8 2.6c-1.2-.7-2.4-1.6-3.5-2.6z"/></svg>